# xmcd CD database file
#
# Track frame offsets:
#	150
#	21045
#	40587
#	57250
#	83237
#	95732
#	111460
#	127957
#	149445
#	171085
#	194720
#	213840
#	234477
#	251400
#	267037
#	282882
#	301362
#
# Disc length: 4356 seconds
#
# Revision: 3
# Processed by: cddbd v1.5.2PL0 Copyright (c) Steve Scherf et al.
# Submitted via: jetAudio 7
#
DISCID=f0110211
DTITLE=Various Artist - Max Best Hits in Japan 4
DYEAR=1997
DGENRE=Pop
TTITLE0=くじら12号
TTITLE1=Shangri-La
TTITLE2=Level 4
TTITLE3=DNA
TTITLE4=Honey
TTITLE5=ありがとう
TTITLE6=田園
TTITLE7=愛はひとつ
TTITLE8=La La La Love Song
TTITLE9=precious･delicious
TTITLE10=This Is Animetal (Radio Edit)
TTITLE11=ウルトラ リラックス
TTITLE12=さよならゲーム
TTITLE13=フラれて元気
TTITLE14=V･A･C･A･T･I･O･N
TTITLE15=Special Love
TTITLE16=大丈夫
EXTD=YEAR: 1997
EXTT0=
EXTT1=
EXTT2=
EXTT3=
EXTT4=
EXTT5=
EXTT6=
EXTT7=
EXTT8=
EXTT9=
EXTT10=
EXTT11=
EXTT12=
EXTT13=
EXTT14=
EXTT15=
EXTT16=
PLAYORDER=
